<?xml version="1.0" standalone="no"?>
<!DOCTYPE svg PUBLIC "-//W3C//DTD SVG 20010904//EN"
 "http://www.w3.org/TR/2001/REC-SVG-20010904/DTD/svg10.dtd">
<svg version="1.0" xmlns="http://www.w3.org/2000/svg"
 width="500.000000pt" height="500.000000pt" viewBox="0 0 500.000000 500.000000"
 preserveAspectRatio="xMidYMid meet">
<metadata>
Created by potrace 1.11, written by Peter Selinger 2001-2013
</metadata>
<g transform="translate(0.000000,500.000000) scale(0.100000,-0.100000)"
fill="#000000" stroke="none">
<path d="M2369 4805 c-3 -2 -23 -5 -44 -6 -59 -3 -221 -37 -290 -62 -167 -59
-285 -135 -410 -261 -139 -141 -234 -300 -308 -512 -37 -106 -81 -289 -92
-384 -4 -30 -8 -57 -10 -60 -4 -7 -18 -203 -19 -277 l-1 -63 -171 0 c-144 0
-182 -3 -238 -20 -127 -40 -226 -141 -280 -289 -21 -55 -21 -72 -23 -1166 -3
-1219 -6 -1160 58 -1283 34 -66 104 -142 165 -178 97 -57 -7 -54 1814 -51
l1675 2 67 33 c123 62 209 173 242 317 15 63 17 178 14 1170 -3 1083 -3 1101
-24 1156 -46 127 -126 219 -234 272 -65 31 -65 31 -257 35 l-193 4 -1 42 c-1
66 -17 214 -33 306 -94 530 -376 968 -741 1153 -106 54 -193 83 -340 113 -37
7 -320 16 -326 9z m306 -550 c304 -57 512 -254 609 -575 36 -123 40 -157 41
-339 l0 -164 -818 -1 c-451 0 -823 2 -828 5 -10 6 -14 259 -5 299 3 14 8 41
10 60 3 19 17 76 31 125 81 281 237 461 482 556 101 39 355 57 478 34z m-85
-1906 c176 -46 296 -270 258 -479 -20 -113 -121 -254 -200 -282 -16 -6 -28
-17 -29 -26 0 -10 -2 -55 -4 -102 -4 -126 -30 -175 -95 -180 -107 -9 -136 45
-139 252 -1 32 -6 39 -46 62 -118 70 -186 198 -187 356 -2 130 40 237 122 314
98 92 196 118 320 85z"/>
</g>
</svg>
